<mxfile host="app.diagrams.net" modified="2024-02-20T03:27:04.379Z" agent="Mozilla/5.0 (Windows NT 10.0; Win64; x64) AppleWebKit/537.36 (KHTML, like Gecko) Chrome/109.0.0.0 Safari/537.36" etag="lu-k8bkPVT7yKJ7iz-xx" version="23.1.5" type="github">
  <diagram name="Halaman-1" id="4NVgkPy5qqp6XrZhuSw1">
    <mxGraphModel dx="2181" dy="1914" grid="1" gridSize="10" guides="1" tooltips="1" connect="1" arrows="1" fold="1" page="1" pageScale="1" pageWidth="827" pageHeight="1169" math="0" shadow="0">
      <root>
        <mxCell id="0" />
        <mxCell id="1" parent="0" />
        <mxCell id="fQUz_tcGDOpw3rwPCMO--3" value="" style="edgeStyle=orthogonalEdgeStyle;rounded=0;orthogonalLoop=1;jettySize=auto;html=1;" edge="1" parent="1" source="fQUz_tcGDOpw3rwPCMO--1">
          <mxGeometry relative="1" as="geometry">
            <mxPoint x="50" as="targetPoint" />
          </mxGeometry>
        </mxCell>
        <mxCell id="fQUz_tcGDOpw3rwPCMO--1" value="START" style="rounded=1;whiteSpace=wrap;html=1;" vertex="1" parent="1">
          <mxGeometry x="20" y="-80" width="60" height="20" as="geometry" />
        </mxCell>
        <mxCell id="fQUz_tcGDOpw3rwPCMO--6" value="" style="edgeStyle=orthogonalEdgeStyle;rounded=0;orthogonalLoop=1;jettySize=auto;html=1;" edge="1" parent="1" source="fQUz_tcGDOpw3rwPCMO--4" target="fQUz_tcGDOpw3rwPCMO--5">
          <mxGeometry relative="1" as="geometry" />
        </mxCell>
        <mxCell id="fQUz_tcGDOpw3rwPCMO--4" value="Calon PMI melakukan Login" style="rounded=0;whiteSpace=wrap;html=1;" vertex="1" parent="1">
          <mxGeometry x="-20" width="140" height="40" as="geometry" />
        </mxCell>
        <mxCell id="fQUz_tcGDOpw3rwPCMO--11" value="" style="edgeStyle=orthogonalEdgeStyle;rounded=0;orthogonalLoop=1;jettySize=auto;html=1;" edge="1" parent="1" source="fQUz_tcGDOpw3rwPCMO--5" target="fQUz_tcGDOpw3rwPCMO--10">
          <mxGeometry relative="1" as="geometry" />
        </mxCell>
        <mxCell id="fQUz_tcGDOpw3rwPCMO--17" value="" style="edgeStyle=orthogonalEdgeStyle;rounded=0;orthogonalLoop=1;jettySize=auto;html=1;" edge="1" parent="1" source="fQUz_tcGDOpw3rwPCMO--5" target="fQUz_tcGDOpw3rwPCMO--16">
          <mxGeometry relative="1" as="geometry" />
        </mxCell>
        <mxCell id="fQUz_tcGDOpw3rwPCMO--5" value="Pengguna Mempunyai Akun?" style="rhombus;whiteSpace=wrap;html=1;rounded=0;" vertex="1" parent="1">
          <mxGeometry x="-26.25" y="80" width="156.25" height="100" as="geometry" />
        </mxCell>
        <mxCell id="fQUz_tcGDOpw3rwPCMO--13" value="" style="edgeStyle=orthogonalEdgeStyle;rounded=0;orthogonalLoop=1;jettySize=auto;html=1;" edge="1" parent="1" source="fQUz_tcGDOpw3rwPCMO--10" target="fQUz_tcGDOpw3rwPCMO--12">
          <mxGeometry relative="1" as="geometry" />
        </mxCell>
        <mxCell id="fQUz_tcGDOpw3rwPCMO--10" value="Pengguna baru melakukan Registrasi" style="whiteSpace=wrap;html=1;rounded=0;" vertex="1" parent="1">
          <mxGeometry x="160" y="95" width="120" height="60" as="geometry" />
        </mxCell>
        <mxCell id="fQUz_tcGDOpw3rwPCMO--15" value="" style="edgeStyle=orthogonalEdgeStyle;rounded=0;orthogonalLoop=1;jettySize=auto;html=1;" edge="1" parent="1" source="fQUz_tcGDOpw3rwPCMO--12" target="fQUz_tcGDOpw3rwPCMO--14">
          <mxGeometry relative="1" as="geometry" />
        </mxCell>
        <mxCell id="fQUz_tcGDOpw3rwPCMO--12" value="Sistem Mengirim Kode OTP ke Nomor WhatsApp" style="whiteSpace=wrap;html=1;rounded=0;" vertex="1" parent="1">
          <mxGeometry x="310" y="95" width="120" height="60" as="geometry" />
        </mxCell>
        <mxCell id="fQUz_tcGDOpw3rwPCMO--22" value="" style="edgeStyle=orthogonalEdgeStyle;rounded=0;orthogonalLoop=1;jettySize=auto;html=1;" edge="1" parent="1" source="fQUz_tcGDOpw3rwPCMO--14" target="fQUz_tcGDOpw3rwPCMO--21">
          <mxGeometry relative="1" as="geometry" />
        </mxCell>
        <mxCell id="fQUz_tcGDOpw3rwPCMO--14" value="Pengguna memasukkan&amp;nbsp;&lt;br&gt;Data Diri" style="whiteSpace=wrap;html=1;rounded=0;" vertex="1" parent="1">
          <mxGeometry x="310" y="220" width="120" height="60" as="geometry" />
        </mxCell>
        <mxCell id="fQUz_tcGDOpw3rwPCMO--18" style="edgeStyle=orthogonalEdgeStyle;rounded=0;orthogonalLoop=1;jettySize=auto;html=1;exitX=1;exitY=0.5;exitDx=0;exitDy=0;entryX=0;entryY=0.5;entryDx=0;entryDy=0;" edge="1" parent="1" source="fQUz_tcGDOpw3rwPCMO--16" target="fQUz_tcGDOpw3rwPCMO--14">
          <mxGeometry relative="1" as="geometry" />
        </mxCell>
        <mxCell id="fQUz_tcGDOpw3rwPCMO--20" value="" style="edgeStyle=orthogonalEdgeStyle;rounded=0;orthogonalLoop=1;jettySize=auto;html=1;" edge="1" parent="1" source="fQUz_tcGDOpw3rwPCMO--16" target="fQUz_tcGDOpw3rwPCMO--19">
          <mxGeometry relative="1" as="geometry" />
        </mxCell>
        <mxCell id="fQUz_tcGDOpw3rwPCMO--16" value="Pengguna pernah mendaftar?" style="rhombus;whiteSpace=wrap;html=1;rounded=0;" vertex="1" parent="1">
          <mxGeometry x="-26.25" y="205" width="156.25" height="90" as="geometry" />
        </mxCell>
        <mxCell id="fQUz_tcGDOpw3rwPCMO--31" value="" style="edgeStyle=orthogonalEdgeStyle;rounded=0;orthogonalLoop=1;jettySize=auto;html=1;" edge="1" parent="1" source="fQUz_tcGDOpw3rwPCMO--19" target="fQUz_tcGDOpw3rwPCMO--29">
          <mxGeometry relative="1" as="geometry" />
        </mxCell>
        <mxCell id="fQUz_tcGDOpw3rwPCMO--19" value="Pengguna menjawab interview" style="whiteSpace=wrap;html=1;rounded=0;" vertex="1" parent="1">
          <mxGeometry x="-8.125000000000004" y="310" width="120" height="60" as="geometry" />
        </mxCell>
        <mxCell id="fQUz_tcGDOpw3rwPCMO--24" value="" style="edgeStyle=orthogonalEdgeStyle;rounded=0;orthogonalLoop=1;jettySize=auto;html=1;" edge="1" parent="1" source="fQUz_tcGDOpw3rwPCMO--21" target="fQUz_tcGDOpw3rwPCMO--23">
          <mxGeometry relative="1" as="geometry" />
        </mxCell>
        <mxCell id="fQUz_tcGDOpw3rwPCMO--21" value="Pengguna memasukkan data sekolah" style="whiteSpace=wrap;html=1;rounded=0;" vertex="1" parent="1">
          <mxGeometry x="310" y="295" width="120" height="60" as="geometry" />
        </mxCell>
        <mxCell id="fQUz_tcGDOpw3rwPCMO--27" value="" style="edgeStyle=orthogonalEdgeStyle;rounded=0;orthogonalLoop=1;jettySize=auto;html=1;" edge="1" parent="1" source="fQUz_tcGDOpw3rwPCMO--23" target="fQUz_tcGDOpw3rwPCMO--25">
          <mxGeometry relative="1" as="geometry" />
        </mxCell>
        <mxCell id="fQUz_tcGDOpw3rwPCMO--23" value="Pengguna memasukkan data pengalaman kerja" style="whiteSpace=wrap;html=1;rounded=0;" vertex="1" parent="1">
          <mxGeometry x="310" y="380" width="120" height="60" as="geometry" />
        </mxCell>
        <mxCell id="fQUz_tcGDOpw3rwPCMO--26" style="edgeStyle=orthogonalEdgeStyle;rounded=0;orthogonalLoop=1;jettySize=auto;html=1;exitX=0;exitY=0.5;exitDx=0;exitDy=0;entryX=1;entryY=0.5;entryDx=0;entryDy=0;" edge="1" parent="1" source="fQUz_tcGDOpw3rwPCMO--25" target="fQUz_tcGDOpw3rwPCMO--19">
          <mxGeometry relative="1" as="geometry" />
        </mxCell>
        <mxCell id="fQUz_tcGDOpw3rwPCMO--25" value="Pengguna memasukkan data pelatihan" style="whiteSpace=wrap;html=1;rounded=0;" vertex="1" parent="1">
          <mxGeometry x="310" y="460" width="120" height="60" as="geometry" />
        </mxCell>
        <mxCell id="fQUz_tcGDOpw3rwPCMO--29" value="SELESAI" style="rounded=1;whiteSpace=wrap;html=1;" vertex="1" parent="1">
          <mxGeometry x="11.879999999999999" y="410" width="79.99" height="20" as="geometry" />
        </mxCell>
      </root>
    </mxGraphModel>
  </diagram>
</mxfile>
